<svg width="64" height="64" viewBox="0 0 64 64" fill="none" xmlns="http://www.w3.org/2000/svg">
<rect width="64" height="64" rx="16" fill="#ECF5FF"/>
<path d="M31.9402 22.21L29.5302 27.82H27.1202C26.7202 27.82 26.3302 27.85 25.9502 27.93L26.9502 25.53L26.9902 25.44L27.0502 25.28C27.0802 25.21 27.1002 25.15 27.1302 25.1C28.2902 22.41 29.5902 21.57 31.9402 22.21Z" fill="#1572D3"/>
<path d="M38.7301 28.09L38.7101 28.08C38.1101 27.91 37.5001 27.82 36.8801 27.82H30.6201L32.8701 22.59L32.9001 22.52C33.0401 22.57 33.1901 22.64 33.3401 22.69L35.5501 23.62C36.7801 24.13 37.6401 24.66 38.1701 25.3C38.2601 25.42 38.3401 25.53 38.4201 25.66C38.5101 25.8 38.5801 25.94 38.6201 26.09C38.6601 26.18 38.6901 26.26 38.7101 26.35C38.8601 26.86 38.8701 27.44 38.7301 28.09Z" fill="#1572D3"/>
<path d="M32.52 37.66H32.77C33.07 37.66 33.32 37.39 33.32 37.06C33.32 36.64 33.2 36.58 32.94 36.48L32.52 36.33V37.66Z" fill="#1572D3"/>
<path d="M38.2902 29.5199C37.8402 29.3899 37.3702 29.3199 36.8802 29.3199H27.1202C26.4402 29.3199 25.8002 29.4499 25.2002 29.7099C23.4602 30.4599 22.2402 32.1899 22.2402 34.1999V36.1499C22.2402 36.3899 22.2602 36.6199 22.2902 36.8599C22.5102 40.0399 24.2102 41.7399 27.3902 41.9499C27.6202 41.9799 27.8502 41.9999 28.1002 41.9999H35.9002C39.6002 41.9999 41.5502 40.2399 41.7402 36.7399C41.7502 36.5499 41.7602 36.3499 41.7602 36.1499V34.1999C41.7602 31.9899 40.2902 30.1299 38.2902 29.5199ZM33.2802 35.4999C33.7402 35.6599 34.3602 35.9999 34.3602 37.0599C34.3602 37.9699 33.6502 38.6999 32.7702 38.6999H32.5202V38.9199C32.5202 39.2099 32.2902 39.4399 32.0002 39.4399C31.7102 39.4399 31.4802 39.2099 31.4802 38.9199V38.6999H31.3902C30.4302 38.6999 29.6402 37.8899 29.6402 36.8899C29.6402 36.5999 29.8702 36.3699 30.1602 36.3699C30.4502 36.3699 30.6802 36.5999 30.6802 36.8899C30.6802 37.3099 31.0002 37.6599 31.3902 37.6599H31.4802V35.9699L30.7202 35.6999C30.2602 35.5399 29.6402 35.1999 29.6402 34.1399C29.6402 33.2299 30.3502 32.4999 31.2302 32.4999H31.4802V32.2799C31.4802 31.9899 31.7102 31.7599 32.0002 31.7599C32.2902 31.7599 32.5202 31.9899 32.5202 32.2799V32.4999H32.6102C33.5702 32.4999 34.3602 33.3099 34.3602 34.3099C34.3602 34.5999 34.1302 34.8299 33.8402 34.8299C33.5502 34.8299 33.3202 34.5999 33.3202 34.3099C33.3202 33.8899 33.0002 33.5399 32.6102 33.5399H32.5202V35.2299L33.2802 35.4999Z" fill="#1572D3"/>
<path d="M30.6802 34.14C30.6802 34.56 30.8002 34.62 31.0602 34.72L31.4802 34.87V33.54H31.2302C30.9202 33.54 30.6802 33.81 30.6802 34.14Z" fill="#1572D3"/>
</svg>
