<svg width="64" height="64" viewBox="0 0 64 64" fill="none" xmlns="http://www.w3.org/2000/svg">
<rect width="64" height="64" rx="16" fill="#ECF5FF"/>
<path d="M38.4699 36.83L38.8599 39.99C38.9599 40.82 38.0699 41.4 37.3599 40.97L33.8999 38.91C33.6599 38.77 33.5999 38.47 33.7299 38.23C34.2299 37.31 34.4999 36.27 34.4999 35.23C34.4999 31.57 31.3599 28.59 27.4999 28.59C26.7099 28.59 25.9399 28.71 25.2199 28.95C24.8499 29.07 24.4899 28.73 24.5799 28.35C25.4899 24.71 28.9899 22 33.1699 22C38.0499 22 41.9999 25.69 41.9999 30.24C41.9999 32.94 40.6099 35.33 38.4699 36.83Z" fill="#1572D3"/>
<path d="M33 35.23C33 36.42 32.56 37.52 31.82 38.39C30.83 39.59 29.26 40.36 27.5 40.36L24.89 41.91C24.45 42.18 23.89 41.81 23.95 41.3L24.2 39.33C22.86 38.4 22 36.91 22 35.23C22 33.47 22.94 31.92 24.38 31C25.27 30.42 26.34 30.09 27.5 30.09C30.54 30.09 33 32.39 33 35.23Z" fill="#1572D3"/>
</svg>
